<?xml version="1.0" standalone="no"?>
<!DOCTYPE svg PUBLIC "-//W3C//DTD SVG 20010904//EN"
 "http://www.w3.org/TR/2001/REC-SVG-20010904/DTD/svg10.dtd">
<svg version="1.0" xmlns="http://www.w3.org/2000/svg"
 width="350.000000pt" height="350.000000pt" viewBox="0 0 350.000000 350.000000"
 preserveAspectRatio="xMidYMid meet">
<metadata>
Created by potrace 1.11, written by Peter Selinger 2001-2013
</metadata>
<g transform="translate(0.000000,350.000000) scale(0.100000,-0.100000)"
fill="#000000" stroke="none">
<path d="M1665 3490 c-3 -6 4 -15 17 -20 22 -10 22 -10 -5 -7 -20 3 -31 -1
-38 -15 -5 -10 -14 -16 -20 -13 -5 4 -5 14 2 26 18 34 3 33 -51 -1 -27 -18
-57 -30 -65 -27 -8 4 -34 -5 -59 -19 -35 -19 -53 -24 -80 -19 -29 6 -47 1
-103 -30 -66 -37 -177 -111 -218 -147 -11 -9 -48 -39 -82 -65 -38 -29 -71 -66
-86 -93 -13 -25 -51 -84 -85 -131 -69 -96 -107 -173 -117 -238 -4 -24 -17 -58
-30 -76 -23 -35 -37 -95 -30 -130 2 -11 4 -23 4 -27 1 -5 8 -8 16 -8 12 0 13
-5 7 -17 -7 -15 -10 -143 -4 -176 1 -5 14 1 28 12 37 29 54 27 54 -6 0 -26
-14 -53 -56 -110 -16 -23 -16 -23 15 -17 24 5 35 2 45 -11 12 -16 15 -15 39
16 24 30 33 29 28 -3 0 -5 4 -8 9 -8 6 0 10 28 10 63 0 70 19 118 21 55 1 -21
3 -42 4 -48 1 -5 3 -14 4 -20 3 -23 18 -6 49 53 27 54 30 68 22 97 -5 18 -7
37 -4 41 3 5 1 9 -3 9 -9 0 -7 182 3 256 3 24 24 73 49 115 25 41 45 84 45 97
0 20 56 98 100 139 63 58 96 81 104 73 5 -5 16 -5 27 0 12 7 19 6 23 -5 3 -8
14 -12 26 -10 18 4 20 2 9 -11 -10 -12 -9 -16 8 -20 14 -4 23 -17 28 -40 9
-51 29 -43 21 9 l-6 42 22 -35 23 -35 5 30 c5 28 35 44 35 20 0 -5 9 -22 19
-37 21 -32 46 -27 40 8 -6 32 20 42 48 18 20 -19 21 -19 35 3 l15 23 28 -20
c21 -15 29 -17 33 -8 2 9 21 1 57 -24 30 -21 56 -34 59 -29 3 4 25 11 48 15
44 6 72 -9 85 -45 4 -11 8 -11 18 -2 11 10 11 15 0 28 -17 20 -72 49 -126 65
-22 7 -50 19 -62 29 -20 15 -21 17 -4 39 23 29 52 20 52 -16 0 -20 3 -23 12
-14 7 7 21 11 33 11 17 -1 17 -2 2 -6 -14 -4 -10 -9 20 -24 45 -23 64 -24 57
-4 -9 21 9 19 37 -6 24 -21 24 -21 27 -1 3 19 3 19 43 0 23 -11 44 -30 49 -44
6 -14 14 -22 20 -19 7 4 6 13 -1 27 -18 33 6 46 31 17 15 -16 23 -20 26 -11 7
16 39 16 52 -1 15 -18 22 -66 11 -72 -15 -10 -10 -35 7 -35 14 0 14 -3 3 -16
-7 -8 -14 -33 -15 -55 -2 -35 2 -45 37 -78 43 -42 49 -73 25 -119 -8 -15 -16
-43 -17 -62 -3 -28 0 -35 14 -34 21 2 23 -14 2 -22 -8 -4 -12 -10 -9 -16 3 -5
12 -7 20 -4 8 3 14 -1 14 -9 0 -18 -27 -45 -46 -45 -16 0 -19 -36 -4 -45 6 -3
13 1 16 9 8 20 24 21 24 2 0 -17 23 -61 32 -63 4 -1 20 2 36 6 l28 8 -6 -55
c-8 -69 -4 -107 15 -145 17 -34 20 -61 5 -52 -5 3 -10 1 -10 -5 0 -6 12 -15
26 -20 20 -8 24 -13 15 -24 -8 -10 -6 -17 9 -31 11 -10 20 -22 20 -27 0 -20
-30 -38 -65 -38 -29 0 -37 -5 -46 -27 -7 -20 -6 -29 3 -35 8 -6 -2 -7 -27 -3
-60 8 -159 5 -181 -6 -5 -3 -20 -5 -34 -4 -14 0 -27 -2 -30 -6 -3 -3 -41 -24
-85 -47 -44 -23 -86 -52 -94 -64 -8 -12 -13 -43 -12 -69 1 -38 -2 -46 -16 -46
-43 0 -46 -5 -13 -21 31 -15 35 -22 33 -52 -9 -145 -6 -196 13 -240 18 -39 19
-49 8 -76 -7 -17 -14 -70 -15 -119 -1 -48 -6 -106 -12 -127 -11 -43 -60 -88
-95 -88 -30 0 -39 -42 -19 -85 9 -19 14 -44 12 -56 -2 -12 0 -29 5 -38 7 -14
3 -17 -28 -17 -20 0 -45 -3 -54 -8 -14 -6 -22 0 -39 28 -11 20 -25 34 -29 31
-5 -3 -11 -1 -15 5 -8 12 -25 13 -25 1 0 -5 9 -11 20 -14 12 -3 20 -14 20 -27
0 -21 -4 -22 -46 -17 -53 6 -65 19 -57 59 3 18 1 28 -6 28 -6 0 -14 -13 -17
-30 -4 -16 -11 -30 -16 -30 -6 0 -8 6 -5 14 12 31 -8 23 -29 -12 -13 -20 -24
-32 -24 -27 0 6 7 21 16 34 20 28 47 114 34 106 -6 -4 -10 -15 -10 -26 0 -21
-26 -26 -33 -6 -3 7 -20 -4 -44 -30 -37 -40 -71 -62 -43 -28 10 12 10 15 -3
15 -19 0 -41 -26 -33 -39 4 -6 0 -26 -9 -46 -9 -22 -12 -43 -7 -53 13 -26 2
-110 -16 -124 -13 -11 -14 -10 -8 15 8 34 -8 36 -36 5 -13 -16 -21 -19 -24
-10 -8 18 -32 15 -44 -7 -5 -11 -19 -23 -30 -26 -11 -3 -20 -12 -20 -20 0 -7
-6 -16 -12 -18 -7 -3 2 -6 21 -6 33 -1 34 -2 15 -16 -19 -14 -18 -14 4 -15 12
0 22 -6 22 -13 0 -9 10 -13 28 -12 39 3 48 -6 21 -21 -21 -11 -22 -13 -7 -19
11 -4 32 1 53 14 19 11 42 18 49 15 8 -3 20 3 27 14 8 12 19 18 28 14 14 -5
13 -3 -1 11 -9 9 -21 17 -27 17 -21 0 -11 19 18 36 22 13 31 27 35 58 9 56 40
101 84 122 42 20 190 31 358 26 97 -3 102 -4 112 -27 7 -14 15 -25 19 -24 5 1
26 1 48 0 35 -1 38 -3 23 -14 -17 -13 -34 -62 -30 -84 2 -9 -14 -13 -53 -13
-31 0 -55 4 -55 10 0 7 -8 6 -22 -1 -12 -7 -34 -12 -48 -13 -21 -1 -26 -7 -31
-40 -3 -21 -12 -42 -20 -46 -19 -12 -22 -5 -10 19 9 16 8 28 -4 51 -9 16 -19
30 -23 30 -17 -1 -62 -75 -62 -103 0 -24 3 -28 18 -21 22 10 92 11 112 2 14
-6 106 -18 150 -20 17 -1 40 -17 40 -27 0 -4 -16 -5 -35 -3 -40 5 -41 2 -19
-39 18 -36 14 -45 -15 -29 -23 12 -26 8 -33 -35 -3 -17 -10 -19 -47 -17 -43 4
-44 3 -37 -22 4 -15 2 -26 -4 -26 -5 0 -10 -9 -10 -21 0 -11 4 -18 9 -15 11 7
-8 -86 -21 -99 -6 -6 -7 0 -4 18 7 38 -5 99 -18 94 -6 -2 -12 -24 -12 -48 -3
-73 -4 -79 -12 -79 -5 0 -13 17 -18 38 -9 34 -11 35 -20 17 -6 -11 -14 -35
-17 -53 l-7 -33 128 6 c257 11 287 18 387 84 115 76 169 135 241 267 129 235
265 525 329 699 22 60 44 102 68 127 66 70 112 248 116 449 2 78 10 155 23
213 23 104 24 165 3 205 -17 34 -32 41 -68 34 -15 -3 -34 -3 -42 1 -14 5 -14
8 -1 28 13 21 14 28 1 66 -8 23 -18 97 -21 164 -3 67 -10 131 -16 141 -5 10
-7 40 -3 65 5 44 3 51 -36 102 -38 50 -106 181 -123 237 -4 12 -16 25 -27 28
-10 4 -19 12 -19 19 0 30 -53 109 -102 153 -29 27 -91 86 -138 133 -64 65
-105 96 -165 127 -133 69 -322 123 -426 123 -22 0 -53 7 -69 15 -18 9 -31 11
-35 5z m36 -384 c5 3 9 1 9 -4 0 -6 -7 -12 -15 -16 -11 -4 -15 1 -14 17 0 12
3 16 6 9 2 -6 9 -10 14 -6z m-411 -16 c0 -5 -5 -10 -11 -10 -5 0 -7 5 -4 10 3
6 8 10 11 10 2 0 4 -4 4 -10z m380 -55 c16 -19 0 -19 -26 0 -16 12 -16 14 -3
15 9 0 22 -7 29 -15z m-340 1 c0 -3 -4 -8 -10 -11 -5 -3 -10 -1 -10 4 0 6 5
11 10 11 6 0 10 -2 10 -4z m458 -64 c2 -8 -4 -11 -20 -8 -12 3 -26 5 -30 5 -5
1 -8 6 -8 12 0 14 52 7 58 -9z m442 -52 c0 -5 -4 -10 -10 -10 -5 0 -10 5 -10
10 0 6 5 10 10 10 6 0 10 -4 10 -10z m136 -1105 c50 -14 134 -80 134 -103 0
-23 -20 -12 -42 23 -13 19 -41 44 -63 57 -35 20 -54 23 -145 23 -91 0 -112 -4
-155 -25 -27 -13 -54 -26 -60 -28 -12 -5 51 38 80 54 31 18 192 17 251 -1z
m-181 -85 c3 -6 -1 -13 -10 -16 -19 -8 -30 0 -20 15 8 14 22 14 30 1z m-72
-29 c11 -44 82 -67 136 -45 24 10 38 11 45 4 5 -5 19 -10 30 -10 19 0 19 -1
-3 -24 -24 -26 -15 -42 18 -31 22 7 31 -4 38 -48 8 -53 20 -54 67 -8 29 28 50
42 60 38 13 -5 14 -11 4 -32 -13 -29 -10 -34 22 -40 12 -2 24 -6 26 -8 2 -1
-6 -33 -17 -69 -14 -48 -25 -69 -40 -73 -18 -6 -20 -14 -17 -70 l3 -64 -28 6
c-18 4 -32 1 -37 -7 -5 -8 -10 -2 -15 19 -3 17 -13 31 -21 31 -20 0 -17 -27 7
-67 12 -19 19 -36 16 -39 -3 -3 -1 -18 3 -34 6 -20 4 -34 -5 -47 -13 -17 -14
-16 -8 5 7 28 -8 28 -35 -1 -17 -18 -20 -32 -18 -83 2 -33 9 -70 15 -83 21
-39 4 -35 -45 12 -41 40 -74 52 -74 27 0 -13 28 -38 50 -45 12 -4 20 -15 20
-29 0 -12 3 -26 8 -32 4 -5 -10 7 -31 28 -21 21 -44 38 -52 38 -18 0 -75 72
-84 108 -4 15 -4 39 0 54 6 24 3 32 -27 56 -32 27 -35 33 -33 78 3 59 -10 82
-66 118 -50 31 -70 52 -57 60 4 3 20 -6 35 -20 14 -13 29 -24 32 -24 11 0 33
65 39 116 6 41 3 55 -13 75 -22 28 -31 63 -16 64 6 0 23 10 37 21 27 21 27 22
8 39 -15 14 -17 20 -7 36 15 24 23 24 30 0z m-187 -138 c-11 -11 -17 4 -9 23
7 18 8 18 11 1 2 -10 1 -21 -2 -24z m611 -15 c-3 -8 -6 -5 -6 6 -1 11 2 17 5
13 3 -3 4 -12 1 -19z m-564 -3 c0 -6 -7 -11 -16 -13 -12 -3 -15 1 -11 13 7 17
25 17 27 0z m267 -655 c0 -5 -7 -10 -16 -10 -8 0 -12 5 -9 10 3 6 10 10 16 10
5 0 9 -4 9 -10z m305 -29 c2 -12 0 -19 -6 -16 -5 4 -9 16 -9 27 0 26 9 19 15
-11z m-761 4 c-4 -8 -8 -15 -10 -15 -2 0 -4 7 -4 15 0 8 4 15 10 15 5 0 7 -7
4 -15z m727 -37 c11 -21 11 -22 -4 -9 -10 7 -17 17 -17 22 0 15 9 10 21 -13z
m-621 -16 c0 -15 -2 -15 -10 -2 -13 20 -13 33 0 25 6 -3 10 -14 10 -23z m20
-39 c0 -5 -5 -15 -10 -23 -8 -12 -10 -11 -10 8 0 12 5 22 10 22 6 0 10 -3 10
-7z m510 -43 c0 -10 -4 -22 -10 -25 -6 -4 -10 7 -10 25 0 18 4 29 10 25 6 -3
10 -15 10 -25z m70 9 c0 -6 -4 -7 -10 -4 -5 3 -10 11 -10 16 0 6 5 7 10 4 6
-3 10 -11 10 -16z m-694 -26 c-7 -7 -26 7 -26 19 0 6 6 6 15 -2 9 -7 13 -15
11 -17z m54 7 c0 -11 -2 -20 -4 -20 -2 0 -6 9 -9 20 -3 11 -1 20 4 20 5 0 9
-9 9 -20z m491 -14 c2 -29 -1 -44 -12 -74 l-10 -26 -14 28 c-10 18 -13 42 -9
66 5 31 10 37 25 33 11 -3 20 -15 20 -27z m-1028 -38 c-3 -16 -9 -28 -14 -28
-12 0 -11 4 3 35 14 31 18 29 11 -7z m1107 -14 c0 -8 -4 -12 -10 -9 -5 3 -10
10 -10 16 0 5 5 9 10 9 6 0 10 -7 10 -16z m65 -52 c-8 -8 -35 20 -35 37 1 12
5 11 21 -8 11 -13 17 -26 14 -29z m-175 -44 c0 -21 -24 0 -31 28 l-8 29 19
-24 c11 -13 20 -28 20 -33z m-33 0 c11 -13 24 -34 28 -46 6 -22 5 -23 -14 -13
-17 9 -21 9 -21 -2 0 -8 7 -20 15 -27 8 -7 15 -20 15 -28 0 -12 -3 -13 -12 -4
-23 23 -27 12 -8 -20 19 -33 21 -53 7 -75 -11 -18 -52 3 -66 33 -9 21 -8 24
11 24 21 0 21 0 2 21 -16 17 -16 22 -4 30 13 7 13 10 1 18 -10 7 -8 12 10 25
13 9 19 16 14 16 -6 0 -4 4 4 9 11 7 10 13 -4 35 -21 32 -6 34 22 4z m-257 -8
c0 -5 -5 -10 -11 -10 -5 0 -7 5 -4 10 3 6 8 10 11 10 2 0 4 -4 4 -10z m-750
-80 c-6 -11 -18 -20 -26 -20 -8 0 -12 -4 -9 -10 3 -5 15 -10 26 -10 39 0 13
-25 -29 -28 -54 -4 -86 21 -56 43 11 8 31 17 46 20 15 4 30 11 33 16 12 19 26
9 15 -11z m561 -53 c-8 -8 -11 -7 -11 4 0 20 13 34 18 19 3 -7 -1 -17 -7 -23z
m59 19 c0 -8 -7 -16 -15 -20 -15 -5 -21 14 -8 27 11 12 23 8 23 -7z m27 -18
c-3 -7 -5 -2 -5 12 0 14 2 19 5 13 2 -7 2 -19 0 -25z m245 -71 c32 -20 42 -21
32 -4 -5 8 -4 9 4 2 6 -5 14 -22 17 -38 6 -22 4 -26 -9 -21 -16 6 -19 -4 -19
-58 0 -10 -8 -20 -18 -23 -11 -4 -16 -11 -12 -18 3 -7 -3 -4 -14 6 -11 9 -24
17 -30 17 -13 0 -43 44 -43 64 0 10 -6 13 -15 10 -10 -4 -18 3 -25 21 -13 35
-13 40 5 25 14 -11 56 -5 54 8 -1 4 -1 20 0 36 l1 29 23 -19 c12 -11 34 -28
49 -37z m38 38 c0 -8 -4 -15 -9 -15 -5 0 -11 7 -15 15 -3 9 0 15 9 15 8 0 15
-7 15 -15z m-240 -59 c0 -11 -19 -15 -25 -6 -3 5 1 10 9 10 9 0 16 -2 16 -4z
m73 -120 c14 -13 30 -41 36 -62 l10 -39 -19 23 c-17 21 -19 21 -29 5 -8 -14
-10 -7 -11 32 0 37 -3 46 -10 35 -6 -8 -9 -32 -8 -52 3 -45 -19 -76 -28 -40
-4 12 -9 20 -13 18 -3 -2 -7 16 -7 40 -1 42 7 56 21 34 9 -15 25 -2 18 15 -8
22 11 18 40 -9z m107 -41 c12 -22 11 -27 -5 -45 -24 -26 -39 -26 -24 1 6 12 9
32 6 45 -6 31 6 31 23 -1z m-300 -95 c-6 -11 -12 -20 -13 -20 -1 0 -3 19 -4
42 -3 41 -2 41 13 20 11 -16 12 -26 4 -42z m240 20 c0 -5 -4 -10 -10 -10 -5 0
-10 5 -10 10 0 6 5 10 10 10 6 0 10 -4 10 -10z"/>
<path d="M2040 1341 c0 -5 7 -11 15 -15 8 -3 15 -1 15 4 0 5 8 7 18 4 14 -5
15 -4 2 5 -18 13 -50 14 -50 2z"/>
<path d="M2100 264 c0 -5 7 -19 15 -30 8 -10 15 -14 15 -8 0 5 -7 19 -15 30
-8 10 -15 14 -15 8z"/>
<path d="M1970 2952 c0 -12 19 -26 26 -19 2 2 -2 10 -11 17 -9 8 -15 8 -15 2z"/>
<path d="M1837 2920 c6 -22 21 -35 29 -27 7 7 -15 47 -25 47 -5 0 -7 -9 -4
-20z"/>
<path d="M1780 2900 c0 -5 5 -10 11 -10 5 0 7 5 4 10 -3 6 -8 10 -11 10 -2 0
-4 -4 -4 -10z"/>
<path d="M677 2242 c-21 -23 -23 -54 -3 -46 11 4 36 45 36 59 0 11 -18 4 -33
-13z"/>
<path d="M896 2205 c-20 -30 -20 -36 -2 -29 16 6 40 54 27 54 -5 0 -16 -11
-25 -25z"/>
<path d="M612 2173 c-8 -14 -9 -24 -2 -28 12 -7 24 18 18 37 -3 8 -9 5 -16 -9z"/>
<path d="M900 2141 c0 -5 9 -7 20 -4 11 3 20 7 20 9 0 2 -9 4 -20 4 -11 0 -20
-4 -20 -9z"/>
<path d="M685 2109 c6 -24 3 -27 -27 -32 -41 -6 -45 -3 -24 19 9 9 14 19 11
22 -9 9 -85 -81 -80 -95 2 -7 0 -13 -5 -13 -6 0 -10 6 -10 13 0 8 -4 7 -10 -3
-14 -22 -12 -190 3 -219 20 -39 31 -26 42 46 11 68 20 93 34 93 17 0 51 -43
51 -65 0 -22 30 -43 53 -37 13 4 7 -36 -9 -52 -17 -17 -17 -17 -87 -21 -26 -1
-50 -5 -53 -8 -3 -3 1 -40 10 -81 21 -101 45 -146 98 -180 25 -17 28 -17 34
-2 7 17 4 34 -17 109 -13 45 -12 50 5 62 10 8 24 11 32 8 8 -3 22 3 30 13 17
20 16 17 -2 -33 -5 -13 0 -11 17 6 13 14 29 38 35 55 6 16 15 31 21 33 6 2 23
-27 39 -64 30 -73 65 -133 76 -133 8 0 5 8 -46 131 -42 102 -54 180 -37 241 9
32 9 51 1 72 -15 40 -27 23 -33 -47 -6 -66 -9 -72 -32 -63 -14 5 -16 19 -12
91 3 47 1 88 -4 91 -5 3 -9 -2 -9 -10 0 -28 -37 -18 -45 12 l-8 27 -7 -25 c-5
-14 -9 -20 -10 -15 -8 49 -12 61 -21 70 -7 7 -8 2 -4 -16z m5 -63 c0 -7 -9
-23 -20 -36 -11 -13 -20 -31 -20 -42 0 -23 -9 -23 -26 0 -19 24 -17 32 5 32
24 0 52 37 44 58 -4 10 -2 13 5 8 7 -4 12 -13 12 -20z m111 -313 c-12 -20 -14
-14 -5 12 4 9 9 14 11 11 3 -2 0 -13 -6 -23z"/>
<path d="M892 2083 c-25 -35 -28 -54 -10 -50 14 2 40 55 35 70 -2 6 -13 -3
-25 -20z"/>
<path d="M1019 1901 c0 -3 -2 -14 -4 -23 -2 -10 1 -20 6 -24 5 -3 9 0 9 7 0 7
9 4 23 -9 37 -35 73 -42 212 -42 101 0 145 -4 175 -16 23 -9 39 -18 37 -21 -2
-2 -17 1 -33 7 -47 18 -139 23 -178 10 -44 -14 -55 -28 -18 -24 l27 4 -25 -9
c-14 -5 -43 -14 -65 -20 -50 -13 -105 -65 -105 -97 l0 -24 50 25 c27 14 52 25
55 25 3 0 9 0 14 0 5 0 13 9 16 20 9 28 55 28 55 0 0 -12 13 -28 31 -39 39
-24 94 -13 127 24 12 15 22 20 23 13 1 -21 9 -61 13 -65 2 -2 22 -1 44 3 38 6
40 8 31 31 -7 20 -6 23 9 21 12 -2 16 3 14 16 -2 12 1 15 8 11 7 -5 21 4 35
21 l23 28 -37 14 c-156 57 -250 80 -321 77 -22 -1 -41 6 -57 21 -14 13 -44 26
-66 29 -76 10 -127 13 -128 6z m311 -179 c0 -13 -12 -22 -22 -16 -10 6 -1 24
13 24 5 0 9 -4 9 -8z"/>
<path d="M1080 1735 c-7 -8 -8 -15 -2 -15 5 0 15 7 22 15 7 8 8 15 2 15 -5 0
-15 -7 -22 -15z"/>
<path d="M767 1608 c-7 -27 2 -45 14 -27 11 18 11 49 0 49 -5 0 -11 -10 -14
-22z"/>
<path d="M1640 1590 c-11 -11 -20 -23 -20 -27 0 -12 18 -38 22 -33 41 63 40
102 -2 60z"/>
<path d="M997 1543 c-2 -5 -2 -14 -1 -20 1 -7 2 -21 3 -30 1 -13 5 -10 16 11
15 27 13 46 -5 46 -5 0 -11 -3 -13 -7z"/>
<path d="M1050 1541 c0 -5 -3 -16 -6 -25 -4 -11 -1 -16 10 -16 10 0 16 9 16
25 0 14 -4 25 -10 25 -5 0 -10 -4 -10 -9z"/>
<path d="M1590 1520 c0 -5 4 -10 9 -10 6 0 13 5 16 10 3 6 -1 10 -9 10 -9 0
-16 -4 -16 -10z"/>
<path d="M601 1491 c6 -16 17 -32 25 -35 12 -5 12 -1 -1 24 -21 40 -37 48 -24
11z"/>
<path d="M779 1483 c-5 -63 -3 -83 9 -88 8 -3 12 -13 9 -24 -2 -10 -1 -25 4
-32 16 -27 22 20 8 69 -7 26 -12 57 -10 70 1 12 -2 22 -8 22 -6 0 -12 -8 -12
-17z"/>
<path d="M720 1451 c0 -6 5 -13 10 -16 6 -3 10 1 10 9 0 9 -4 16 -10 16 -5 0
-10 -4 -10 -9z"/>
<path d="M806 1304 c-9 -22 -8 -26 6 -22 13 5 20 38 8 38 -4 0 -11 -7 -14 -16z"/>
<path d="M827 1260 c-13 -35 -17 -70 -7 -70 12 0 23 42 17 67 -3 15 -5 15 -10
3z"/>
<path d="M866 1223 c-6 -14 -5 -15 5 -6 7 7 10 15 7 18 -3 3 -9 -2 -12 -12z"/>
<path d="M875 1191 c-9 -19 -11 -32 -5 -36 6 -3 10 -1 10 4 0 6 5 11 10 11 7
0 7 -6 0 -20 -10 -18 -8 -20 20 -20 21 0 30 -5 30 -17 0 -9 3 -13 6 -10 8 8
-36 117 -47 117 -5 0 -15 -13 -24 -29z"/>
<path d="M976 1192 c-4 -13 -5 -26 -2 -29 10 -11 18 4 14 29 l-4 23 -8 -23z"/>
<path d="M897 1113 c-4 -3 -7 -11 -7 -17 0 -6 5 -5 12 2 6 6 9 14 7 17 -3 3
-9 2 -12 -2z"/>
<path d="M1670 903 c0 -20 26 -63 39 -63 4 0 5 17 2 37 -7 40 -41 62 -41 26z"/>
<path d="M1705 800 c-10 -16 4 -62 15 -55 13 8 13 52 1 60 -5 3 -13 0 -16 -5z"/>
<path d="M1645 764 c8 -45 10 -48 24 -39 19 11 12 54 -10 66 -21 11 -21 10
-14 -27z"/>
<path d="M1153 577 c-13 -5 -23 -13 -23 -18 0 -10 39 1 46 13 9 15 1 16 -23 5z"/>
<path d="M1605 460 c-3 -5 -1 -10 4 -10 6 0 11 5 11 10 0 6 -2 10 -4 10 -3 0
-8 -4 -11 -10z"/>
<path d="M1355 380 c3 -5 10 -10 16 -10 5 0 9 5 9 10 0 6 -7 10 -16 10 -8 0
-12 -4 -9 -10z"/>
<path d="M1320 355 c-6 -8 -36 -21 -66 -30 -32 -9 -54 -21 -54 -29 0 -14 55
-66 69 -66 4 0 20 13 36 30 16 16 44 33 62 36 37 7 36 16 -1 21 -13 2 -29 -4
-36 -12 -7 -8 -18 -15 -25 -15 -11 0 -10 7 2 31 11 21 18 27 23 19 10 -17 31
-3 23 15 -7 19 -17 19 -33 0z m-43 -79 c0 -7 -7 -12 -16 -11 -9 2 -22 4 -29 4
-7 1 -10 6 -7 11 9 15 52 12 52 -4z"/>
<path d="M1401 360 c-9 -5 -8 -9 5 -14 9 -4 21 -3 26 2 12 12 -15 23 -31 12z"/>
<path d="M1070 354 c0 -17 40 -75 55 -81 33 -12 27 8 -13 49 -23 23 -42 38
-42 32z"/>
<path d="M1522 290 c-11 -17 -10 -20 8 -20 13 0 18 -5 14 -15 -9 -21 3 -19 15
4 8 14 6 22 -7 34 -16 15 -19 15 -30 -3z"/>
<path d="M1357 252 c-9 -2 -14 -8 -11 -14 4 -6 0 -14 -7 -19 -11 -7 -11 -9 -1
-9 15 0 62 29 62 39 0 8 -15 9 -43 3z"/>
<path d="M1150 241 c0 -15 124 -126 173 -155 153 -89 287 -95 249 -10 -15 31
-17 30 -26 -10 -7 -27 -6 -28 10 -15 16 13 16 12 6 -8 -13 -24 -50 -21 -66 5
-6 11 -10 11 -16 2 -6 -9 -12 -9 -29 1 -11 8 -21 17 -21 21 0 20 -37 48 -64
48 -16 0 -44 10 -64 22 -32 20 -33 22 -16 35 15 11 15 13 2 13 -9 0 -18 -5
-20 -11 -5 -14 -38 0 -38 16 0 8 -12 23 -26 34 -28 22 -54 28 -54 12z"/>
<path d="M1285 229 c-12 -19 5 -23 22 -6 16 16 16 17 1 17 -9 0 -20 -5 -23
-11z"/>
<path d="M1311 164 c0 -11 3 -14 6 -6 3 7 2 16 -1 19 -3 4 -6 -2 -5 -13z"/>
<path d="M1330 150 c0 -5 4 -10 9 -10 6 0 13 5 16 10 3 6 -1 10 -9 10 -9 0
-16 -4 -16 -10z"/>
<path d="M1680 130 c0 -5 5 -10 11 -10 5 0 7 5 4 10 -3 6 -8 10 -11 10 -2 0
-4 -4 -4 -10z"/>
<path d="M1627 116 c-3 -8 1 -17 9 -20 9 -4 14 1 14 14 0 23 -15 27 -23 6z"/>
<path d="M1626 34 c-4 -10 -2 -22 3 -27 7 -7 13 -5 17 7 4 10 2 22 -3 27 -7 7
-13 5 -17 -7z"/>
</g>
</svg>
